<?xml version="1.0" encoding="UTF-8" standalone="no"?>
<!DOCTYPE svg PUBLIC "-//W3C//DTD SVG 1.1//EN" "http://www.w3.org/Graphics/SVG/1.1/DTD/svg11.dtd">
<svg version="1.1" xmlns="http://www.w3.org/2000/svg" xmlns:xlink="http://www.w3.org/1999/xlink" preserveAspectRatio="xMidYMid meet" viewBox="0 0 640 640" width="640" height="640"><defs><path d="M-11.33 -22.93L676 -22.93L676 657.07L-11.33 657.07L-11.33 -22.93Z" id="a1htMKUtAv"></path><path d="M-11.33 655.19L648.04 661.53C669.21 274.23 669.21 80.85 648.04 81.38C616.3 82.17 477.41 121.85 367.88 130.58C258.36 139.31 119.47 71.06 81.38 68.68C55.98 67.09 23.17 78.47 -17.04 102.8L-11.33 655.19Z" id="a2cvLKNYhc"></path><path d="M-11.33 657.07L648.84 657.07C728.73 356.34 728.73 216.3 648.84 236.93C528.99 267.88 326.61 182.96 289.31 182.17C252.01 181.38 148.04 209.95 112.33 217.09C88.52 221.85 45.4 220.79 -17.04 213.92L-11.33 657.07Z" id="a1dOvvjJLq"></path><path d="M-11.33 653.6L650.42 653.6L657.57 380.58C663.92 366.83 648.84 359.42 612.33 358.36C557.57 356.77 477.41 417.09 413.12 417.09C348.84 417.09 224.23 354.39 147.25 345.66C95.93 339.84 42.49 347.78 -13.07 369.47L-11.33 653.6Z" id="evGEsqAXe"></path><path d="M649.63 653.6C678.73 555.19 681.85 504.39 658.98 501.22C624.67 496.46 487.72 551.22 439.31 548.84C390.9 546.46 336.14 515.5 228.99 505.19C157.57 498.31 76.88 514.18 -13.07 552.8L649.63 653.6Z" id="aNw6QmwIH"></path><path d="M-20.21 553.6L663.92 553.6L663.92 648.84L-20.21 648.84L-20.21 553.6Z" id="j1BEquY8SY"></path></defs><g><g><g><use xlink:href="#a1htMKUtAv" opacity="1" fill="#3ac8fe" fill-opacity="1"></use></g><g><use xlink:href="#a2cvLKNYhc" opacity="1" fill="#19b9f6" fill-opacity="1"></use></g><g><use xlink:href="#a1dOvvjJLq" opacity="1" fill="#05aeef" fill-opacity="1"></use></g><g><use xlink:href="#evGEsqAXe" opacity="1" fill="#01a5e4" fill-opacity="1"></use></g><g><use xlink:href="#aNw6QmwIH" opacity="1" fill="#009bd7" fill-opacity="1"></use></g><g><use xlink:href="#j1BEquY8SY" opacity="1" fill="#009bd7" fill-opacity="1"></use></g></g></g></svg>