<?xml version="1.0" encoding="UTF-8" standalone="no"?>
<!DOCTYPE svg PUBLIC "-//W3C//DTD SVG 1.1//EN" "http://www.w3.org/Graphics/SVG/1.1/DTD/svg11.dtd">
<svg version="1.1" xmlns="http://www.w3.org/2000/svg" xmlns:xlink="http://www.w3.org/1999/xlink" preserveAspectRatio="xMidYMid meet" viewBox="0 0 533 533" width="533" height="533"><defs><path d="M533.33 266.67C533.33 119.39 413.94 0 266.67 0C119.39 0 0 119.39 0 266.67C0 399.77 97.52 510.09 225 530.09C225 517.67 225 455.56 225 343.75L157.29 343.75L157.29 266.67L225 266.67C225 231.42 225 211.83 225 207.92C225 141.08 264.81 104.17 325.72 104.17C354.9 104.17 385.42 109.38 385.42 109.38C385.42 113.75 385.42 135.63 385.42 175C365.24 175 354.03 175 351.79 175C318.66 175 308.33 195.56 308.33 216.64C308.33 219.98 308.33 236.65 308.33 266.67L382.29 266.67L370.47 343.75L308.33 343.75C308.33 455.56 308.33 517.67 308.33 530.09C435.82 510.09 533.33 399.77 533.33 266.67" id="c15kXc8gS6"></path></defs><g><g><g><use xlink:href="#c15kXc8gS6" opacity="1" fill="#cdcdcd" fill-opacity="1"></use><g><use xlink:href="#c15kXc8gS6" opacity="1" fill-opacity="0" stroke="#000000" stroke-width="1" stroke-opacity="0"></use></g></g></g></g></svg>