<?xml version="1.0" encoding="UTF-8" standalone="no"?>
<!DOCTYPE svg PUBLIC "-//W3C//DTD SVG 1.1//EN" "http://www.w3.org/Graphics/SVG/1.1/DTD/svg11.dtd">
<svg version="1.1" xmlns="http://www.w3.org/2000/svg" xmlns:xlink="http://www.w3.org/1999/xlink" preserveAspectRatio="xMidYMid meet" viewBox="0 0 1200 800" width="1200" height="800"><defs><path d="M0 800L1210.86 878.15L1205.09 230.21C1190.66 235.02 1109.85 235.02 962.67 230.21C741.89 222.99 448.97 41.18 290.24 48.39C184.42 53.2 87.68 86.87 0 149.4L0 800Z" id="aD0AOHyh"></path><path d="M-8.46 826.21L1189.22 912.79C1286.38 493.36 1293.59 298.08 1210.86 326.94C1086.76 370.22 815.48 243.24 705.82 224.48C596.15 205.73 466.28 263.44 321.99 274.99C225.79 282.68 115.64 270.66 -8.46 238.91L-8.46 826.21Z" id="a1iXp9BVTy"></path><path d="M-12.79 847.85L1205.09 932.99L1216.63 442.37C1286.86 457.77 1243.57 460.17 1086.76 449.59C851.56 433.72 819.81 388.98 524 354.35C326.8 331.26 145.46 350.99 -20 413.51L-12.79 847.85Z" id="g1xojAKoQw"></path><path d="M-8.46 834.86L1210.86 849.29L1210.86 521.74C1140.64 540.02 950.16 561.66 639.44 586.67C328.72 611.68 112.75 596.77 -8.46 541.94L-8.46 834.86Z" id="cHLMskyoL"></path><path d="M-15.67 829.09L1210.86 866.61C1233.95 775.22 1235.39 732.41 1215.19 738.18C1184.89 746.84 1151.7 736.74 1124.28 729.53C1096.87 722.31 1073.78 696.34 792.4 660.26C604.81 636.21 337.86 662.19 -8.46 738.18L-15.67 829.09Z" id="b6GxkvUiR"></path></defs><g><g><g><use xlink:href="#aD0AOHyh" opacity="1" fill="#3f5bae" fill-opacity="1"></use></g><g><use xlink:href="#a1iXp9BVTy" opacity="1" fill="#5073d7" fill-opacity="1"></use></g><g><use xlink:href="#g1xojAKoQw" opacity="1" fill="#6588e6" fill-opacity="1"></use></g><g><use xlink:href="#cHLMskyoL" opacity="1" fill="#7d9ef5" fill-opacity="1"></use></g><g><use xlink:href="#b6GxkvUiR" opacity="1" fill="#9fb9ff" fill-opacity="1"></use></g></g></g></svg>