<?xml version="1.0" encoding="UTF-8" standalone="no"?>
<!DOCTYPE svg PUBLIC "-//W3C//DTD SVG 1.1//EN" "http://www.w3.org/Graphics/SVG/1.1/DTD/svg11.dtd">
<svg version="1.1" xmlns="http://www.w3.org/2000/svg" xmlns:xlink="http://www.w3.org/1999/xlink" preserveAspectRatio="xMidYMid meet" viewBox="0 0 640 640" width="640" height="640"><defs><path d="M-7.87 -5L649.51 -5L649.51 648.28L-7.87 648.28L-7.87 -5Z" id="c3D9d7LYO"></path><path d="M250.93 252.36C207.27 295.6 142.59 316.68 56.9 315.61C144.18 317.95 209.84 341.5 253.85 386.25C297.87 430.99 319.68 495.93 319.28 581.07C319.39 494.48 341.53 429.04 385.71 384.75C429.89 340.45 496.23 317.71 584.74 316.52C496.79 317.69 430.52 295.91 385.94 251.17C341.35 206.43 319.8 140.08 321.28 52.14C318.04 142.38 294.59 209.12 250.93 252.36Z" id="dBMklgaa1"></path></defs><g><g><g><use xlink:href="#c3D9d7LYO" opacity="1" fill="#1d1d1d" fill-opacity="1"></use></g><g><use xlink:href="#dBMklgaa1" opacity="1" fill="#181818" fill-opacity="1"></use></g></g></g></svg>