<?xml version="1.0" encoding="UTF-8" standalone="no"?>
<!DOCTYPE svg PUBLIC "-//W3C//DTD SVG 1.1//EN" "http://www.w3.org/Graphics/SVG/1.1/DTD/svg11.dtd">
<svg version="1.1" xmlns="http://www.w3.org/2000/svg" xmlns:xlink="http://www.w3.org/1999/xlink" preserveAspectRatio="xMidYMid meet" viewBox="0 0 533 533" width="533" height="533"><defs><path d="M156.72 1.6C128.34 2.9 108.95 7.41 91.99 14C74.45 20.81 59.58 29.93 44.76 44.76C29.93 59.58 20.81 74.45 14 91.99C7.41 108.95 2.9 128.34 1.6 156.72C0.31 185.16 0 194.24 0 266.67C0 339.09 0.31 348.17 1.6 376.61C2.9 405 7.41 424.38 14 441.34C20.81 458.88 29.93 473.75 44.76 488.58C59.58 503.4 74.45 512.52 91.99 519.33C108.95 525.93 128.34 530.43 156.72 531.73C185.16 533.03 194.24 533.33 266.67 533.33C339.09 533.33 348.17 533.03 376.61 531.73C405 530.43 424.38 525.93 441.34 519.33C458.88 512.52 473.75 503.4 488.58 488.58C503.4 473.75 512.52 458.88 519.33 441.34C525.93 424.38 530.43 405 531.73 376.61C533.03 348.17 533.33 339.09 533.33 266.67C533.33 194.24 533.03 185.16 531.73 156.72C530.43 128.34 525.93 108.95 519.33 91.99C512.52 74.45 503.4 59.58 488.58 44.76C473.75 29.93 458.88 20.81 441.34 14C424.38 7.41 405 2.9 376.61 1.6C348.17 0.31 339.09 0 266.67 0C194.24 0 185.16 0.31 156.72 1.6ZM266.67 48.05C337.87 48.05 346.3 48.32 374.42 49.6C400.42 50.79 414.54 55.13 423.94 58.78C436.39 63.62 445.27 69.4 454.6 78.73C463.93 88.06 469.71 96.95 474.55 109.39C478.2 118.79 482.55 132.91 483.73 158.91C485.01 187.03 485.29 195.46 485.29 266.67C485.29 337.87 485.01 346.3 483.73 374.42C482.55 400.42 478.2 414.54 474.55 423.94C469.71 436.39 463.93 445.27 454.6 454.6C445.27 463.93 436.39 469.71 423.94 474.55C414.54 478.2 400.42 482.55 374.42 483.73C346.31 485.01 337.87 485.29 266.67 485.29C195.46 485.29 187.03 485.01 158.91 483.73C132.91 482.55 118.79 478.2 109.39 474.55C96.95 469.71 88.06 463.93 78.73 454.6C69.4 445.27 63.62 436.39 58.78 423.94C55.13 414.54 50.79 400.42 49.6 374.42C48.32 346.3 48.05 337.87 48.05 266.67C48.05 195.46 48.32 187.03 49.6 158.91C50.79 132.91 55.13 118.79 58.78 109.39C63.62 96.95 69.4 88.06 78.73 78.73C88.06 69.4 96.95 63.62 109.39 58.78C118.79 55.13 132.91 50.79 158.91 49.6C187.03 48.32 195.46 48.05 266.67 48.05" id="c8e9eGP1z5"></path><path d="M177.78 266.67C177.78 217.57 217.57 177.78 266.67 177.78C315.76 177.78 355.56 217.57 355.56 266.67C355.56 315.76 315.76 355.56 266.67 355.56C217.57 355.56 177.78 315.76 177.78 266.67ZM266.67 129.73C191.04 129.73 129.73 191.04 129.73 266.67C129.73 342.3 191.04 403.6 266.67 403.6C342.3 403.6 403.6 342.3 403.6 266.67C403.6 191.04 342.3 129.73 266.67 129.73M441.01 124.32C441.01 141.99 426.69 156.32 409.01 156.32C391.34 156.32 377.01 141.99 377.01 124.32C377.01 106.65 391.34 92.32 409.01 92.32C426.69 92.32 441.01 106.65 441.01 124.32" id="a1kVZTQhEo"></path></defs><g><g><g><use xlink:href="#c8e9eGP1z5" opacity="1" fill="#cdcdcd" fill-opacity="1"></use><g><use xlink:href="#c8e9eGP1z5" opacity="1" fill-opacity="0" stroke="#000000" stroke-width="1" stroke-opacity="0"></use></g></g><g><use xlink:href="#a1kVZTQhEo" opacity="1" fill="#cdcdcd" fill-opacity="1"></use><g><use xlink:href="#a1kVZTQhEo" opacity="1" fill-opacity="0" stroke="#000000" stroke-width="1" stroke-opacity="0"></use></g></g></g></g></svg>