<svg width="1000" height="1000" viewBox="0 0 1000 1000" fill="none" xmlns="http://www.w3.org/2000/svg">
<g clip-path="url(#clip0_7_4809)">
<rect width="1000" height="1000" fill="white"/>
<rect width="1000" height="1000" fill="#37474E"/>
<rect x="301.557" y="1597.44" width="1463.65" height="110.345" transform="rotate(-126.9 301.557 1597.44)" fill="#D9D9D9" fill-opacity="0.04"/>
<rect x="461.494" y="1477.36" width="1463.65" height="110.345" transform="rotate(-126.9 461.494 1477.36)" fill="#D9D9D9" fill-opacity="0.04"/>
<rect x="621.431" y="1357.27" width="1463.65" height="110.345" transform="rotate(-126.9 621.431 1357.27)" fill="#D9D9D9" fill-opacity="0.04"/>
<rect x="781.369" y="1237.19" width="1463.65" height="110.345" transform="rotate(-126.9 781.369 1237.19)" fill="#D9D9D9" fill-opacity="0.04"/>
<rect x="941.305" y="1117.1" width="1463.65" height="110.345" transform="rotate(-126.9 941.305 1117.1)" fill="#D9D9D9" fill-opacity="0.04"/>
<rect x="1101.24" y="997.019" width="1463.65" height="110.345" transform="rotate(-126.9 1101.24 997.019)" fill="#D9D9D9" fill-opacity="0.04"/>
<rect x="1261.18" y="876.935" width="1463.65" height="110.345" transform="rotate(-126.9 1261.18 876.935)" fill="#D9D9D9" fill-opacity="0.04"/>
<rect x="1421.11" y="756.852" width="1463.65" height="110.345" transform="rotate(-126.9 1421.11 756.852)" fill="#D9D9D9" fill-opacity="0.04"/>
</g>
<defs>
<clipPath id="clip0_7_4809">
<rect width="1000" height="1000" fill="white"/>
</clipPath>
</defs>
</svg>
